<?xml version="1.0" standalone="no"?>
<!DOCTYPE svg PUBLIC "-//W3C//DTD SVG 20010904//EN"
 "http://www.w3.org/TR/2001/REC-SVG-20010904/DTD/svg10.dtd">
<svg version="1.0" xmlns="http://www.w3.org/2000/svg"
 width="1133.000000pt" height="299.000000pt" viewBox="0 0 1133.000000 299.000000"
 preserveAspectRatio="xMidYMid meet">

<g transform="translate(0.000000,299.000000) scale(0.100000,-0.100000)"
fill="#000000" stroke="none">
<path d="M1330 1930 l0 -190 190 0 190 0 25 40 25 40 260 0 260 0 0 -240 0
-240 235 0 235 0 0 240 0 240 262 -2 263 -3 20 -37 20 -38 193 0 192 0 0 190
0 190 -1185 0 -1185 0 0 -190z"/>
<path d="M4110 1810 l0 -80 155 0 155 0 2 -317 3 -318 105 0 105 0 3 318 2
317 155 0 155 0 0 80 0 80 -420 0 -420 0 0 -80z"/>
<path d="M5060 1490 l0 -400 400 0 400 0 0 80 0 80 -295 0 -295 0 0 100 0 100
250 0 250 0 0 80 0 80 -250 0 -250 0 0 60 0 60 295 0 295 0 0 80 0 80 -400 0
-400 0 0 -400z"/>
<path d="M6010 1490 l0 -400 398 2 397 3 3 78 3 77 -296 0 -295 0 0 320 0 320
-105 0 -105 0 0 -400z"/>
<path d="M6902 1493 l3 -398 105 0 105 0 5 309 5 309 75 -184 c41 -101 98
-240 126 -309 l50 -125 76 -3 76 -3 122 288 c67 158 128 302 134 318 9 24 12
-37 16 -285 l5 -315 105 0 105 0 3 398 2 397 -191 -2 -191 -3 -88 -218 c-49
-121 -90 -221 -93 -223 -3 -4 -87 202 -158 389 l-22 57 -189 0 -188 0 2 -397z"/>
<path d="M8162 1493 l3 -398 398 -3 397 -2 0 80 0 80 -292 2 -293 3 0 95 0 95
248 3 247 2 0 80 0 80 -250 0 -250 0 0 60 0 60 295 0 295 0 0 80 0 80 -400 0
-400 0 2 -397z"/>
<path d="M9090 1885 c0 -5 89 -114 247 -303 29 -35 53 -67 53 -72 0 -4 -81
-98 -180 -208 -99 -111 -180 -204 -180 -207 0 -3 57 -4 127 -3 l127 3 113 125
c62 69 118 125 124 125 6 0 57 -56 113 -125 l102 -125 142 -3 c78 -1 142 1
142 6 0 5 -29 42 -64 83 -35 41 -113 132 -175 203 -61 71 -111 132 -111 136 0
3 73 87 161 185 l162 180 -129 3 -128 3 -55 -63 c-31 -35 -76 -85 -101 -111
l-45 -49 -94 111 -94 111 -129 0 c-70 0 -128 -2 -128 -5z"/>
<path d="M1793 1713 c-4 -10 -19 -38 -33 -63 -14 -25 -48 -85 -74 -135 -27
-49 -77 -142 -111 -205 -35 -63 -104 -189 -154 -280 l-90 -165 187 -3 c169 -2
188 -1 200 15 7 10 50 86 94 168 119 220 126 230 137 228 6 -2 58 -38 116 -80
58 -43 128 -94 155 -113 26 -19 95 -69 152 -111 56 -42 113 -82 124 -89 20
-12 40 0 265 165 276 202 299 219 316 228 10 7 53 -65 188 -318 21 -38 42 -76
47 -82 8 -10 60 -13 200 -13 l189 0 -24 43 c-26 45 -63 112 -135 247 -25 47
-56 102 -69 122 -13 21 -23 40 -23 43 0 2 -46 89 -103 192 -57 104 -106 196
-110 206 -6 15 -25 17 -202 17 l-195 0 0 -240 0 -240 -325 0 -325 0 0 240 0
240 -195 0 c-177 0 -196 -2 -202 -17z"/>
</g>
</svg>
